%FSLAX45Y45*%
G04 Gerber Fmt 4.5, Leading zero omitted, Abs format (unit mm)*
G04 Created by KiCad (PCBNEW (5.1.9-0-10_14)) date 2021-05-15 14:26:18*
%MOMM*%
%LPD*%
G01*
G04 APERTURE LIST*
%TA.AperFunction,Profile*%
%ADD10C,0.038100*%
%TD*%
%ADD11C,0.200000*%
%ADD12C,0.300000*%
G04 APERTURE END LIST*
D10*
X-2540000Y-381000D02*
X-2540000Y2413000D01*
X1397000Y-381000D02*
X-2540000Y-381000D01*
X1397000Y2413000D02*
X1397000Y-381000D01*
X-2540000Y2413000D02*
X1397000Y2413000D01*
D11*
D12*
X-2255477Y-848619D02*
X-2255477Y-548619D01*
X-2184048Y-548619D01*
X-2141191Y-562905D01*
X-2112619Y-591477D01*
X-2098334Y-620048D01*
X-2084048Y-677191D01*
X-2084048Y-720048D01*
X-2098334Y-777191D01*
X-2112619Y-805762D01*
X-2141191Y-834334D01*
X-2184048Y-848619D01*
X-2255477Y-848619D01*
X-1955476Y-848619D02*
X-1955476Y-648619D01*
X-1955476Y-705762D02*
X-1941191Y-677191D01*
X-1926905Y-662905D01*
X-1898334Y-648619D01*
X-1869762Y-648619D01*
X-1769762Y-848619D02*
X-1769762Y-648619D01*
X-1769762Y-548619D02*
X-1784048Y-562905D01*
X-1769762Y-577191D01*
X-1755476Y-562905D01*
X-1769762Y-548619D01*
X-1769762Y-577191D01*
X-1584048Y-848619D02*
X-1612619Y-834334D01*
X-1626905Y-805762D01*
X-1626905Y-548619D01*
X-1426905Y-848619D02*
X-1455476Y-834334D01*
X-1469762Y-805762D01*
X-1469762Y-548619D01*
X-1084048Y-848619D02*
X-1084048Y-548619D01*
X-984048Y-762905D01*
X-884048Y-548619D01*
X-884048Y-848619D01*
X-612619Y-848619D02*
X-612619Y-691477D01*
X-626905Y-662905D01*
X-655477Y-648619D01*
X-712619Y-648619D01*
X-741191Y-662905D01*
X-612619Y-834334D02*
X-641191Y-848619D01*
X-712619Y-848619D01*
X-741191Y-834334D01*
X-755476Y-805762D01*
X-755476Y-777191D01*
X-741191Y-748619D01*
X-712619Y-734334D01*
X-641191Y-734334D01*
X-612619Y-720048D01*
X-469762Y-648619D02*
X-469762Y-948619D01*
X-469762Y-662905D02*
X-441191Y-648619D01*
X-384048Y-648619D01*
X-355476Y-662905D01*
X-341191Y-677191D01*
X-326905Y-705762D01*
X-326905Y-791476D01*
X-341191Y-820048D01*
X-355476Y-834334D01*
X-384048Y-848619D01*
X-441191Y-848619D01*
X-469762Y-834334D01*
X-198334Y-820048D02*
X-184048Y-834334D01*
X-198334Y-848619D01*
X-212619Y-834334D01*
X-198334Y-820048D01*
X-198334Y-848619D01*
X-198334Y-662905D02*
X-184048Y-677191D01*
X-198334Y-691477D01*
X-212619Y-677191D01*
X-198334Y-662905D01*
X-198334Y-691477D01*
M02*
