G04 #@! TF.GenerationSoftware,KiCad,Pcbnew,(5.1.9-0-10_14)*
G04 #@! TF.CreationDate,2021-05-15T14:25:56+02:00*
G04 #@! TF.ProjectId,Aurora_DSP_I2S_Extender,4175726f-7261-45f4-9453-505f4932535f,1*
G04 #@! TF.SameCoordinates,Original*
G04 #@! TF.FileFunction,Copper,L4,Bot*
G04 #@! TF.FilePolarity,Positive*
%FSLAX46Y46*%
G04 Gerber Fmt 4.6, Leading zero omitted, Abs format (unit mm)*
G04 Created by KiCad (PCBNEW (5.1.9-0-10_14)) date 2021-05-15 14:25:56*
%MOMM*%
%LPD*%
G01*
G04 APERTURE LIST*
G04 #@! TA.AperFunction,ComponentPad*
%ADD10R,1.700000X1.700000*%
G04 #@! TD*
G04 #@! TA.AperFunction,ComponentPad*
%ADD11O,1.700000X1.700000*%
G04 #@! TD*
G04 #@! TA.AperFunction,Conductor*
%ADD12C,0.127000*%
G04 #@! TD*
G04 APERTURE END LIST*
D10*
X7620000Y20320000D03*
D11*
X10160000Y20320000D03*
X7620000Y17780000D03*
X10160000Y17780000D03*
X7620000Y15240000D03*
X10160000Y15240000D03*
X7620000Y12700000D03*
X10160000Y12700000D03*
X7620000Y10160000D03*
X10160000Y10160000D03*
X7620000Y7620000D03*
X10160000Y7620000D03*
X7620000Y5080000D03*
X10160000Y5080000D03*
X7620000Y2540000D03*
X10160000Y2540000D03*
D10*
X-21590000Y20320000D03*
D11*
X-19050000Y20320000D03*
X-21590000Y17780000D03*
X-19050000Y17780000D03*
X-21590000Y15240000D03*
X-19050000Y15240000D03*
X-21590000Y12700000D03*
X-19050000Y12700000D03*
X-21590000Y10160000D03*
X-19050000Y10160000D03*
X-21590000Y7620000D03*
X-19050000Y7620000D03*
X-21590000Y5080000D03*
X-19050000Y5080000D03*
X-21590000Y2540000D03*
X-19050000Y2540000D03*
X-21590000Y0D03*
X-19050000Y0D03*
D12*
X8636000Y21844000D02*
X10160000Y20320000D01*
X4953000Y20320000D02*
X6477000Y21844000D01*
X6477000Y21844000D02*
X8636000Y21844000D01*
X-21590000Y20320000D02*
X4953000Y20320000D01*
X-21590000Y17780000D02*
X5588000Y17780000D01*
X5588000Y17780000D02*
X6858000Y19050000D01*
X8890000Y19050000D02*
X10160000Y17780000D01*
X6858000Y19050000D02*
X8890000Y19050000D01*
X-21590000Y15240000D02*
X5715000Y15240000D01*
X5715000Y15240000D02*
X6858000Y16383000D01*
X9017000Y16383000D02*
X10160000Y15240000D01*
X6858000Y16383000D02*
X9017000Y16383000D01*
X-21590000Y12700000D02*
X5588000Y12700000D01*
X5588000Y12700000D02*
X6858000Y13970000D01*
X8890000Y13970000D02*
X10160000Y12700000D01*
X6858000Y13970000D02*
X8890000Y13970000D01*
X-21590000Y10160000D02*
X5715000Y10160000D01*
X5715000Y10160000D02*
X6985000Y11430000D01*
X6985000Y11430000D02*
X9017000Y11430000D01*
X10160000Y10287000D02*
X10160000Y10160000D01*
X9017000Y11430000D02*
X10160000Y10287000D01*
X-21590000Y7620000D02*
X5842000Y7620000D01*
X5842000Y7620000D02*
X7112000Y8890000D01*
X8890000Y8890000D02*
X10160000Y7620000D01*
X7112000Y8890000D02*
X8890000Y8890000D01*
X8890000Y6350000D02*
X10160000Y5080000D01*
X7112000Y6350000D02*
X8890000Y6350000D01*
X5842000Y5080000D02*
X7112000Y6350000D01*
X-21590000Y5080000D02*
X5842000Y5080000D01*
M02*
